<svg width="938" height="251" viewBox="0 0 938 251" fill="none" xmlns="http://www.w3.org/2000/svg">
<path d="M50.4762 221.948L51.0014 217.992L50.4762 221.948ZM51.0014 217.992L55.2532 185.981L68.7469 185.227L70.9757 186.887C66.7955 204.086 64.2664 214.181 59.9245 231.774L50.6921 232.29C48.4504 232.591 50.1894 228.182 49.1338 229.878C48.0782 231.574 43.0385 230.313 39.6249 231.837C36.2112 233.361 34.324 233.224 33.6666 233.598L25.2039 235.142L17.0752 236.31C14.5125 236.638 11.4408 235.615 12.0057 234.809C12.5704 234.001 14.8905 232.022 16.9176 233.462C18.5768 232.333 19.7706 232.029 22.1661 231.741C26.7621 229.109 29.2212 227.954 33.2727 226.48C42.2306 223.485 47.6806 221.103 51.0014 217.992Z" stroke="black" stroke-width="3" stroke-linecap="round" stroke-linejoin="round"/>
<path d="M135.355 185.446L143.836 216.391C143.967 224.968 143.448 229.158 145.61 229.144C143.354 229.445 147.75 230.534 154.902 229.696C157.485 229.602 160.13 227.619 161.235 228.271C162.339 228.923 170.725 230.643 177.076 231.312C180.282 231.432 182.082 231.54 185.243 230.856C186.759 231.152 187.237 231.079 187.729 230.717C187.729 230.717 188.756 229.946 187.611 228.582C186.467 227.218 185.027 226.941 185.027 226.941C181.365 227.632 181.087 228.065 182.284 228.88C179.182 226.166 175.691 224.84 169.817 222.436L164.392 220.954C162.007 220.262 160.908 219.423 158.513 217.712C156.875 216.711 156.072 215.49 154.962 211.485C154.401 209.93 154.821 208.694 154.489 202.943C154.158 197.191 151.69 184.534 151.69 184.534L134.585 184.419" stroke="black" stroke-width="3" stroke-linecap="round" stroke-linejoin="round"/>
<path d="M114.123 53.0828C113.494 54.79 114.776 54.8575 116.076 56.186C117.84 56.6807 120.878 54.6608 120.514 52.7257M107.277 58.1052L112.959 57.7878C116.152 59.5292 118.05 59.158 121.5 57.6677C124.05 56.2393 127.678 55.1327 126.728 55.5909C129.899 54.4667 131.699 55.3132 131.699 55.3132L107.277 58.1052Z" stroke="black" stroke-width="3" stroke-linecap="round" stroke-linejoin="round"/>
<path d="M109.348 50.4916C115.243 48.6142 118.288 48.208 122.525 50.4697C125.009 51.1369 126.355 51.3393 128.621 51.1995L130.752 51.0804" stroke="black" stroke-width="3" stroke-linecap="round" stroke-linejoin="round"/>
<path d="M74.4943 51.3685L82.3081 50.9319C87.9416 47.653 91.6617 48.0129 98.6447 50.0191L74.4943 51.3685ZM74.7307 55.6399L81.4792 55.2628C86.1887 52.1292 91.9167 50.7523 94.1654 52.7685C94.1654 52.7685 95.9699 56.2477 96.5726 57.6339L74.7307 55.6399ZM55.5231 184.89L150.918 183.487L145.755 122.365L137.511 69.9839L133.685 52.3457C130.077 42.826 128.944 39.979 127.038 35.2224C118.175 20.2786 114.118 14.7727 106.283 14.2456C93.2634 12.2494 83.8097 26.5696 83.8097 26.5696C83.8097 26.5696 73.2855 41.0633 71.2986 51.5471C65.0234 73.7292 65.4498 83.6314 63.2047 104.842C62.005 116.174 60.0375 136.646 58.8407 148.287C57.1223 164.995 56.2345 171.997 55.5231 184.89Z" stroke="black" stroke-width="3" stroke-linecap="round" stroke-linejoin="round"/>
<path d="M85.3033 53.6172C84.9892 53.7988 90.8149 60.0603 92.3461 52.1529" stroke="black" stroke-width="3" stroke-linecap="round" stroke-linejoin="round"/>
<path d="M96.9268 57.7037C96.568 56.9142 90.1541 58.9636 85.7677 58.3271C83.3389 57.5447 83.1578 56.6633 82.5418 55.2004" stroke="black" stroke-width="3" stroke-linecap="round" stroke-linejoin="round"/>
<path d="M107.633 58.0847C108.586 57.9411 109.405 58.1091 110.813 55.8763C111.23 55.4478 111.342 54.7498 112.53 53.7496C115.74 51.6067 119.567 51.7939 122.407 53.1979C125.248 54.6026 124.472 53.9052 124.714 55.0997L131.665 54.7114" stroke="black" stroke-width="3" stroke-linecap="round" stroke-linejoin="round"/>
<path d="M278.09 33.2215C273.034 30.5335 268.362 28.2615 264.074 26.4055C260.682 24.9335 257.034 25.0935 253.13 26.8855C249.29 28.6775 246.026 31.5255 243.338 35.4295C240.65 39.3335 238.57 43.5895 237.098 48.1975C235.626 52.8055 235.562 57.4775 236.906 62.2135C238.314 66.9495 241.194 70.7575 245.546 73.6375C247.85 75.1735 250.25 76.0695 252.746 76.3255C255.306 76.5815 257.834 76.2295 260.33 75.2695C262.826 74.3095 265.034 73.2535 266.954 72.1015C268.874 70.9495 270.986 69.5095 273.29 67.7815L284.906 76.3255C281.514 79.2055 277.834 81.5095 273.866 83.2375C269.962 84.9655 265.77 85.9895 261.29 86.3095C256.874 86.6295 252.778 85.6375 249.002 83.3335C242.666 79.6215 236.586 75.1095 230.762 69.7975C228.138 67.3655 226.09 64.7095 224.618 61.8295C223.21 58.8855 222.41 55.9735 222.218 53.0935C222.026 50.1495 222.218 47.1415 222.794 44.0695C223.37 40.9975 224.394 38.1175 225.866 35.4295C227.402 32.7415 229.098 30.1815 230.954 27.7495C232.874 25.3175 235.05 23.2695 237.482 21.6055C239.914 19.8775 242.378 18.4695 244.874 17.3815C247.37 16.2295 249.93 15.6855 252.554 15.7495C255.242 15.8135 257.77 16.3255 260.138 17.2855C269.738 21.7015 277.29 25.2855 282.794 28.0375L278.09 33.2215ZM321.583 47.6215C317.359 44.7415 312.975 45.1895 308.431 48.9655C304.655 52.1655 302.127 56.4215 300.847 61.7335C299.439 67.8135 300.527 72.3895 304.111 75.4615C304.559 75.8455 305.039 76.1975 305.551 76.5175C308.111 77.9255 310.735 78.2455 313.423 77.4775C316.175 76.7095 318.543 75.0135 320.527 72.3895C322.575 69.7655 324.175 66.9815 325.327 64.0375C326.479 61.0295 326.767 57.9895 326.191 54.9175C325.615 51.7815 324.079 49.3495 321.583 47.6215ZM331.183 48.3895C333.039 50.0535 334.479 52.0695 335.503 54.4375C336.527 56.7415 337.103 59.1095 337.231 61.5415C337.423 63.9735 337.199 66.4375 336.559 68.9335C335.983 71.4295 335.087 73.7655 333.871 75.9415C332.655 78.1175 331.119 80.0695 329.263 81.7975C327.471 83.4615 325.487 84.7095 323.311 85.5415C321.135 86.4375 318.703 86.7895 316.015 86.5975C313.391 86.4055 310.703 85.5735 307.951 84.1015C304.367 82.1815 300.847 79.7495 297.391 76.8055C294.639 74.4375 292.591 71.7815 291.247 68.8375C289.903 65.8295 289.263 62.9175 289.327 60.1015C289.455 57.2855 289.999 54.4695 290.959 51.6535C291.983 48.8375 293.423 46.4055 295.279 44.3575C297.199 42.3095 299.279 40.5815 301.519 39.1735C303.759 37.7015 306.159 36.9335 308.719 36.8695C311.343 36.8055 313.871 37.3495 316.303 38.5015C322.511 41.7655 327.471 45.0615 331.183 48.3895ZM381.568 41.0935L380.512 46.2775C374.304 44.8695 370.208 44.2935 368.224 44.5495C365.088 44.9335 362.624 46.4695 360.832 49.1575C359.04 51.7815 358.4 54.3095 358.912 56.7415C359.04 57.3175 360.512 57.2535 363.328 56.5495C366.144 55.8455 369.216 55.1415 372.544 54.4375C375.872 53.6695 378.016 53.5415 378.976 54.0535C383.392 56.3575 386.368 59.3975 387.904 63.1735C389.44 66.9495 389.6 70.5655 388.384 74.0215C387.232 77.4135 384.832 80.3575 381.184 82.8535C377.536 85.3495 373.152 86.5975 368.032 86.5975C363.808 86.5975 359.872 85.4455 356.224 83.1415C352.64 80.7735 348.416 77.2535 343.552 72.5815L345.28 69.3175C349.632 72.5815 354.24 74.7895 359.104 75.9415C363.968 77.0295 368.48 76.5815 372.64 74.5975C376.864 72.6135 379.68 68.9655 381.088 63.6535C381.152 63.3975 380.864 63.3015 380.224 63.3655C379.52 63.4295 377.76 63.8455 374.944 64.6135C366.048 66.9815 360.384 67.6855 357.952 66.7255L357.088 66.2455C353.568 63.5575 350.72 60.6135 348.544 57.4135C346.944 55.2375 346.272 52.9335 346.528 50.5015C346.848 48.0695 347.68 45.8615 349.024 43.8775C350.368 41.8295 352.384 40.1655 355.072 38.8855C357.76 37.5415 360.704 36.8695 363.904 36.8695C364.864 36.8695 366.208 37.0615 367.936 37.4455C369.728 37.8295 372.224 38.5015 375.424 39.4615C378.688 40.3575 380.736 40.9015 381.568 41.0935ZM409.555 40.6135V43.2055C414.099 38.7895 418.291 36.7095 422.131 36.9655C423.347 37.0295 425.331 38.1815 428.083 40.4215C430.835 42.5975 433.459 45.0295 435.955 47.7175C441.971 40.2295 447.539 36.6455 452.659 36.9655C454.707 37.0935 458.291 39.6535 463.411 44.6455C468.595 49.5735 471.347 52.9335 471.667 54.7255C471.923 56.3895 472.051 67.0135 472.051 86.5975L460.147 83.9095C460.531 61.8935 460.371 50.2455 459.667 48.9655C458.899 47.5575 457.779 46.8215 456.307 46.7575C454.899 46.6935 453.331 47.1735 451.603 48.1975C449.939 49.2215 448.243 50.5335 446.515 52.1335C444.787 53.6695 443.059 55.4295 441.331 57.4135C441.459 60.9335 441.523 70.6615 441.523 86.5975L429.619 83.9095C430.003 61.8935 429.843 50.2455 429.139 48.9655C428.179 47.5575 426.963 46.8215 425.491 46.7575C424.083 46.6935 422.419 47.3015 420.499 48.5815C418.579 49.7975 416.691 51.3015 414.835 53.0935C413.043 54.8215 411.283 56.7735 409.555 58.9495V86.5975L397.555 83.9095V37.9255L409.555 40.6135ZM489.789 32.0695C486.525 30.5335 484.093 28.1975 482.493 25.0615C482.621 24.0375 483.581 22.7255 485.373 21.1255C487.165 19.5255 488.605 18.5975 489.693 18.3415C492.957 19.8135 495.357 22.0855 496.893 25.1575C495.805 27.9095 493.437 30.2135 489.789 32.0695ZM495.549 40.6135V86.5975L483.549 83.9095V37.9255L495.549 40.6135ZM548.768 44.4535L545.312 49.4455C544.352 49.1255 543.232 48.7415 541.952 48.2935C540.672 47.7815 539.68 47.4295 538.976 47.2375C538.272 46.9815 537.504 46.7255 536.672 46.4695C535.84 46.2135 535.136 46.0535 534.56 45.9895C534.048 45.8615 533.568 45.7975 533.12 45.7975C528.96 45.9895 525.44 48.6775 522.56 53.8615C519.808 58.8535 518.752 63.8775 519.392 68.9335C519.968 73.9895 522.208 76.8055 526.112 77.3815C530.656 78.0215 536.736 75.3975 544.352 69.5095L546.176 71.6215C547.456 73.0295 548.704 74.4695 549.92 75.9415L551.744 78.0535C549.248 79.9095 547.04 81.4135 545.12 82.5655C543.264 83.7175 541.344 84.6455 539.36 85.3495C537.376 86.1175 535.424 86.4695 533.504 86.4055C531.648 86.4055 529.728 86.0215 527.744 85.2535C522.24 83.1415 517.056 79.4295 512.192 74.1175C509.312 70.9175 507.712 67.1415 507.392 62.7895C507.136 58.3735 507.904 54.2775 509.696 50.5015C511.552 46.7255 514.272 43.5255 517.856 40.9015C521.44 38.2135 525.344 36.8695 529.568 36.8695C531.552 36.8695 537.952 39.3975 548.768 44.4535ZM637.93 28.9015C631.53 24.6775 625.194 24.9015 618.922 29.5735C613.866 33.4135 610.186 38.9495 607.882 46.1815C605.386 54.2455 605.642 61.1895 608.65 67.0135C610.122 69.9575 612.298 72.2935 615.178 74.0215C621.642 77.9255 627.978 77.4775 634.186 72.6775C639.242 68.7735 642.858 63.1735 645.034 55.8775C647.402 47.8135 646.954 40.9015 643.69 35.1415C642.282 32.5815 640.362 30.5015 637.93 28.9015ZM652.906 33.6055C655.338 35.9735 657.162 38.7895 658.378 42.0535C659.594 45.2535 660.17 48.5495 660.106 51.9415C660.106 55.2695 659.562 58.6615 658.474 62.1175C657.45 65.5735 656.01 68.8055 654.154 71.8135C652.362 74.7575 650.186 77.4135 647.626 79.7815C645.066 82.0855 642.314 83.8455 639.37 85.0615C636.426 86.2775 633.226 86.7895 629.77 86.5975C626.314 86.4055 622.922 85.3495 619.594 83.4295C619.082 83.1095 618.154 82.5975 616.81 81.8935C615.53 81.1895 614.602 80.7095 614.026 80.4535C613.514 80.1335 612.714 79.6535 611.626 79.0135C610.538 78.3095 609.61 77.7015 608.842 77.1895C608.138 76.6135 607.242 75.9415 606.154 75.1735C605.13 74.3415 604.074 73.4455 602.986 72.4855C601.898 71.5255 600.746 70.4375 599.53 69.2215C597.162 66.9815 595.402 64.2935 594.25 61.1575C593.162 58.0215 592.65 54.7895 592.714 51.4615C592.842 48.1335 593.418 44.7735 594.442 41.3815C595.466 37.9255 596.874 34.6935 598.666 31.6855C600.522 28.6135 602.698 25.8935 605.194 23.5255C607.69 21.0935 610.314 19.2055 613.066 17.8615C615.882 16.4535 618.89 15.7495 622.09 15.7495C625.29 15.7495 628.426 16.5815 631.498 18.2455C639.818 22.7255 646.954 27.8455 652.906 33.6055ZM683.12 40.6135V47.7175C687.792 40.3575 691.76 36.6775 695.024 36.6775C696.624 36.6775 699.312 37.5095 703.088 39.1735C706.864 40.7735 710.032 42.4375 712.592 44.1655L705.968 53.7655C702 50.8215 698.544 49.2215 695.6 48.9655C692.72 48.6455 690.416 49.2215 688.688 50.6935C686.96 52.1015 685.104 54.4055 683.12 57.6055V86.5975L671.12 83.9095V37.9255L683.12 40.6135ZM732 78.9175C737.056 81.4775 743.168 80.2295 750.336 75.1735V48.1975C748.48 47.1095 745.888 46.3735 742.56 45.9895C739.936 45.7335 737.376 47.0775 734.88 50.0215C732.384 52.9015 730.496 56.2615 729.216 60.1015C727.936 63.9415 727.456 67.7495 727.776 71.5255C728.16 75.2375 729.568 77.7015 732 78.9175ZM750.336 15.6535L762.336 18.3415C762.72 61.5415 762.72 83.3335 762.336 83.7175C762.016 83.7815 760.352 84.1335 757.344 84.7735C754.4 85.4775 752.512 85.8935 751.68 86.0215C750.848 86.1495 749.12 86.3415 746.496 86.5975C743.936 86.8535 741.888 86.8535 740.352 86.5975C738.88 86.3415 737.024 85.8935 734.784 85.2535C732.544 84.6775 730.4 83.8135 728.352 82.6615C724.704 80.6775 721.888 78.2455 719.904 75.3655C717.92 72.4855 716.864 69.5415 716.736 66.5335C716.608 63.5255 716.96 60.4855 717.792 57.4135C718.624 54.2775 719.936 51.4295 721.728 48.8695C723.584 46.2455 725.536 43.9415 727.584 41.9575C729.696 39.9735 731.904 38.5655 734.208 37.7335C736.512 36.8375 738.56 36.6775 740.352 37.2535C741.184 37.5095 742.048 37.8935 742.944 38.4055C743.904 38.8535 744.672 39.2695 745.248 39.6535C745.888 40.0375 746.752 40.6135 747.84 41.3815C748.992 42.1495 749.824 42.6935 750.336 43.0135V15.6535ZM784.504 64.7095L806.296 49.8295C801.688 46.8855 797.752 45.7975 794.488 46.5655C791.288 47.3335 788.824 49.3495 787.096 52.6135C785.368 55.8135 784.504 59.8455 784.504 64.7095ZM786.712 73.9255C788.504 76.1015 790.52 77.4455 792.76 77.9575C795 78.4695 797.336 78.1815 799.768 77.0935C802.264 75.9415 804.344 74.8215 806.008 73.7335C807.672 72.5815 809.624 71.0775 811.864 69.2215L813.784 71.1415C815 72.4855 816.216 73.8295 817.432 75.1735L819.352 77.0935C813.784 81.1895 809.08 83.9095 805.24 85.2535C801.4 86.6615 797.592 86.6615 793.816 85.2535C788.312 83.1415 783.128 79.4295 778.264 74.1175C775.384 70.9175 773.72 67.1415 773.272 62.7895C772.824 58.3735 773.368 54.2775 774.904 50.5015C776.504 46.7255 778.936 43.5255 782.2 40.9015C785.528 38.2135 789.144 36.8695 793.048 36.8695C795.608 36.8695 799.384 38.5335 804.376 41.8615C809.432 45.1255 813.624 48.3255 816.952 51.4615C816.888 51.6535 814.328 53.6375 809.272 57.4135C804.28 61.1255 799.256 64.8055 794.2 68.4535L786.712 73.9255ZM839.87 40.6135V47.7175C844.542 40.3575 848.51 36.6775 851.774 36.6775C853.374 36.6775 856.062 37.5095 859.838 39.1735C863.614 40.7735 866.782 42.4375 869.342 44.1655L862.718 53.7655C858.75 50.8215 855.294 49.2215 852.35 48.9655C849.47 48.6455 847.166 49.2215 845.438 50.6935C843.71 52.1015 841.854 54.4055 839.87 57.6055V86.5975L827.87 83.9095V37.9255L839.87 40.6135ZM278.09 175.221C273.034 172.533 268.362 170.261 264.074 168.405C260.682 166.933 257.034 167.093 253.13 168.885C249.29 170.677 246.026 173.525 243.338 177.429C240.65 181.333 238.57 185.589 237.098 190.197C235.626 194.805 235.562 199.477 236.906 204.213C238.314 208.949 241.194 212.757 245.546 215.637C247.85 217.173 250.25 218.069 252.746 218.325C255.306 218.581 257.834 218.229 260.33 217.269C262.826 216.309 265.034 215.253 266.954 214.101C268.874 212.949 270.986 211.509 273.29 209.781L284.906 218.325C281.514 221.205 277.834 223.509 273.866 225.237C269.962 226.965 265.77 227.989 261.29 228.309C256.874 228.629 252.778 227.637 249.002 225.333C242.666 221.621 236.586 217.109 230.762 211.797C228.138 209.365 226.09 206.709 224.618 203.829C223.21 200.885 222.41 197.973 222.218 195.093C222.026 192.149 222.218 189.141 222.794 186.069C223.37 182.997 224.394 180.117 225.866 177.429C227.402 174.741 229.098 172.181 230.954 169.749C232.874 167.317 235.05 165.269 237.482 163.605C239.914 161.877 242.378 160.469 244.874 159.381C247.37 158.229 249.93 157.685 252.554 157.749C255.242 157.813 257.77 158.325 260.138 159.285C269.738 163.701 277.29 167.285 282.794 170.037L278.09 175.221ZM300.847 206.709L322.639 191.829C318.031 188.885 314.095 187.797 310.831 188.565C307.631 189.333 305.167 191.349 303.439 194.613C301.711 197.813 300.847 201.845 300.847 206.709ZM303.055 215.925C304.847 218.101 306.863 219.445 309.103 219.957C311.343 220.469 313.679 220.181 316.111 219.093C318.607 217.941 320.687 216.821 322.351 215.733C324.015 214.581 325.967 213.077 328.207 211.221L330.127 213.141C331.343 214.485 332.559 215.829 333.775 217.173L335.695 219.093C330.127 223.189 325.423 225.909 321.583 227.253C317.743 228.661 313.935 228.661 310.159 227.253C304.655 225.141 299.471 221.429 294.607 216.117C291.727 212.917 290.063 209.141 289.615 204.789C289.167 200.373 289.711 196.277 291.247 192.501C292.847 188.725 295.279 185.525 298.543 182.901C301.871 180.213 305.487 178.869 309.391 178.869C311.951 178.869 315.727 180.533 320.719 183.861C325.775 187.125 329.967 190.325 333.295 193.461C333.231 193.653 330.671 195.637 325.615 199.413C320.623 203.125 315.599 206.805 310.543 210.453L303.055 215.925ZM356.214 182.613V189.717C360.886 182.357 364.854 178.677 368.118 178.677C369.718 178.677 372.406 179.509 376.182 181.173C379.958 182.773 383.126 184.437 385.686 186.165L379.062 195.765C375.094 192.821 371.638 191.221 368.694 190.965C365.814 190.645 363.51 191.221 361.782 192.693C360.054 194.101 358.198 196.405 356.214 199.605V228.597L344.214 225.909V179.925L356.214 182.613ZM395.59 192.117L390.406 183.381C394.886 182.229 399.846 181.141 405.286 180.117C410.79 179.093 414.246 178.613 415.654 178.677C417.062 178.741 419.878 180.853 424.102 185.013C428.326 189.109 431.174 192.245 432.646 194.421C433.158 195.189 433.414 197.781 433.414 202.197C433.414 206.549 433.318 211.541 433.126 217.173C432.998 222.805 432.966 226.613 433.03 228.597L421.126 225.813L421.222 220.917C416.038 226.101 411.814 228.693 408.55 228.693C405.478 228.629 401.574 225.717 396.838 219.957C392.102 214.197 389.734 210.069 389.734 207.573C389.734 205.589 391.078 203.765 393.766 202.101C396.454 200.437 399.718 199.157 403.558 198.261C407.462 197.301 410.918 196.565 413.926 196.053C416.934 195.541 419.494 195.189 421.606 194.997L421.702 192.405C421.766 189.333 420.134 187.669 416.806 187.413C413.734 187.221 407.27 188.597 397.414 191.541H397.318L397.222 191.637H397.126H397.03L396.934 191.733H396.838H396.742L396.646 191.829H396.55H396.454L396.358 191.925H396.262H396.166H396.07L395.974 192.021H395.878H395.782L395.686 192.117H395.59ZM400.39 216.213C400.966 217.109 402.054 217.685 403.654 217.941C405.254 218.197 407.654 217.781 410.854 216.693C414.118 215.541 417.638 213.557 421.414 210.741L421.51 202.293C404.614 207.221 397.574 211.861 400.39 216.213ZM456.805 182.613V185.205C461.349 180.789 465.541 178.709 469.381 178.965C470.597 179.029 472.581 180.181 475.333 182.421C478.085 184.597 480.709 187.029 483.205 189.717C489.221 182.229 494.789 178.645 499.909 178.965C501.957 179.093 505.541 181.653 510.661 186.645C515.845 191.573 518.597 194.933 518.917 196.725C519.173 198.389 519.301 209.013 519.301 228.597L507.397 225.909C507.781 203.893 507.621 192.245 506.917 190.965C506.149 189.557 505.029 188.821 503.557 188.757C502.149 188.693 500.581 189.173 498.853 190.197C497.189 191.221 495.493 192.533 493.765 194.133C492.037 195.669 490.309 197.429 488.581 199.413C488.709 202.933 488.773 212.661 488.773 228.597L476.869 225.909C477.253 203.893 477.093 192.245 476.389 190.965C475.429 189.557 474.213 188.821 472.741 188.757C471.333 188.693 469.669 189.301 467.749 190.581C465.829 191.797 463.941 193.301 462.085 195.093C460.293 196.821 458.533 198.773 456.805 200.949V228.597L444.805 225.909V179.925L456.805 182.613ZM537.039 174.069C533.775 172.533 531.343 170.197 529.743 167.061C529.871 166.037 530.831 164.725 532.623 163.125C534.415 161.525 535.855 160.597 536.943 160.341C540.207 161.813 542.607 164.085 544.143 167.157C543.055 169.909 540.687 172.213 537.039 174.069ZM542.799 182.613V228.597L530.799 225.909V179.925L542.799 182.613ZM596.018 186.453L592.562 191.445C591.602 191.125 590.482 190.741 589.202 190.293C587.922 189.781 586.93 189.429 586.226 189.237C585.522 188.981 584.754 188.725 583.922 188.469C583.09 188.213 582.386 188.053 581.81 187.989C581.298 187.861 580.818 187.797 580.37 187.797C576.21 187.989 572.69 190.677 569.81 195.861C567.058 200.853 566.002 205.877 566.642 210.933C567.218 215.989 569.458 218.805 573.362 219.381C577.906 220.021 583.986 217.397 591.602 211.509L593.426 213.621C594.706 215.029 595.954 216.469 597.17 217.941L598.994 220.053C596.498 221.909 594.29 223.413 592.37 224.565C590.514 225.717 588.594 226.645 586.61 227.349C584.626 228.117 582.674 228.469 580.754 228.405C578.898 228.405 576.978 228.021 574.994 227.253C569.49 225.141 564.306 221.429 559.442 216.117C556.562 212.917 554.962 209.141 554.642 204.789C554.386 200.373 555.154 196.277 556.946 192.501C558.802 188.725 561.522 185.525 565.106 182.901C568.69 180.213 572.594 178.869 576.818 178.869C578.802 178.869 585.202 181.397 596.018 186.453ZM641.537 183.093L640.481 188.277C634.273 186.869 630.177 186.293 628.193 186.549C625.057 186.933 622.593 188.469 620.801 191.157C619.009 193.781 618.369 196.309 618.881 198.741C619.009 199.317 620.481 199.253 623.297 198.549C626.113 197.845 629.185 197.141 632.513 196.437C635.841 195.669 637.985 195.541 638.945 196.053C643.361 198.357 646.337 201.397 647.873 205.173C649.409 208.949 649.569 212.565 648.353 216.021C647.201 219.413 644.801 222.357 641.153 224.853C637.505 227.349 633.121 228.597 628.001 228.597C623.777 228.597 619.841 227.445 616.193 225.141C612.609 222.773 608.385 219.253 603.521 214.581L605.249 211.317C609.601 214.581 614.209 216.789 619.073 217.941C623.937 219.029 628.449 218.581 632.609 216.597C636.833 214.613 639.649 210.965 641.057 205.653C641.121 205.397 640.833 205.301 640.193 205.365C639.489 205.429 637.729 205.845 634.913 206.613C626.017 208.981 620.353 209.685 617.921 208.725L617.057 208.245C613.537 205.557 610.689 202.613 608.513 199.413C606.913 197.237 606.241 194.933 606.497 192.501C606.817 190.069 607.649 187.861 608.993 185.877C610.337 183.829 612.353 182.165 615.041 180.885C617.729 179.541 620.673 178.869 623.873 178.869C624.833 178.869 626.177 179.061 627.905 179.445C629.697 179.829 632.193 180.501 635.393 181.461C638.657 182.357 640.705 182.901 641.537 183.093Z" fill="black"/>
</svg>
