<svg width="1359" height="200" viewBox="0 0 1359 200" fill="none" xmlns="http://www.w3.org/2000/svg">
<path d="M54.8358 180.009L55.2712 176.73L54.8358 180.009ZM55.2712 176.73L58.7948 150.201L69.9777 149.576L71.8248 150.952C68.3605 165.205 66.2645 173.572 62.6662 188.152L55.0148 188.579C53.157 188.829 54.5982 185.175 53.7233 186.58C52.8485 187.986 48.6718 186.941 45.8428 188.204C43.0137 189.467 41.4497 189.354 40.9049 189.664L33.8914 190.943L27.1548 191.911C25.0309 192.183 22.4853 191.335 22.9534 190.667C23.4214 189.998 25.3442 188.358 27.0242 189.551C28.3992 188.615 29.3886 188.363 31.3738 188.125C35.1828 185.943 37.2207 184.986 40.5784 183.765C48.0023 181.282 52.519 179.308 55.2712 176.73Z" stroke="black" stroke-width="3" stroke-linecap="round" stroke-linejoin="round"/>
<path d="M125.179 149.758L132.208 175.403C132.317 182.511 131.886 185.984 133.678 185.972C131.808 186.222 135.452 187.125 141.379 186.43C143.519 186.352 145.711 184.708 146.627 185.249C147.543 185.789 154.492 187.215 159.756 187.77C162.413 187.868 163.904 187.958 166.524 187.391C167.78 187.636 168.177 187.576 168.584 187.276C168.584 187.276 169.435 186.637 168.486 185.507C167.538 184.376 166.345 184.147 166.345 184.147C163.31 184.72 163.08 185.078 164.072 185.753C161.501 183.504 158.608 182.406 153.739 180.413L149.244 179.185C147.267 178.612 146.356 177.916 144.371 176.498C143.014 175.669 142.348 174.656 141.429 171.337C140.963 170.048 141.312 169.024 141.037 164.258C140.762 159.492 138.717 149.001 138.717 149.001L124.541 148.906" stroke="black" stroke-width="3" stroke-linecap="round" stroke-linejoin="round"/>
<path d="M107.583 40.0614C107.062 41.4763 108.125 41.5323 109.202 42.6333C110.664 43.0433 113.182 41.3692 112.88 39.7655M101.91 44.2238L106.618 43.9607C109.265 45.4039 110.837 45.0963 113.697 43.8612C115.81 42.6774 118.817 41.7603 118.03 42.1401C120.658 41.2084 122.149 41.9099 122.149 41.9099L101.91 44.2238Z" stroke="black" stroke-width="3" stroke-linecap="round" stroke-linejoin="round"/>
<path d="M103.626 37.914C108.511 36.3581 111.035 36.0215 114.547 37.8958C116.605 38.4488 117.72 38.6165 119.598 38.5006L121.364 38.402" stroke="black" stroke-width="3" stroke-linecap="round" stroke-linejoin="round"/>
<path d="M74.7409 38.6408L81.2166 38.2789C85.8854 35.5615 88.9684 35.8598 94.7556 37.5224L74.7409 38.6408ZM74.9369 42.1807L80.5297 41.8682C84.4327 39.2712 89.1798 38.1301 91.0434 39.801C91.0434 39.801 92.5388 42.6844 93.0383 43.8332L74.9369 42.1807ZM59.0185 149.297L138.077 148.134L133.798 97.4795L126.966 54.0683L123.795 39.4506C120.805 31.5612 119.867 29.2017 118.286 25.2597C110.941 12.875 107.579 8.31192 101.086 7.87512C90.2958 6.22072 82.4611 18.0886 82.4611 18.0886C82.4611 18.0886 73.7391 30.1003 72.0925 38.7888C66.8918 57.1722 67.2453 65.3787 65.3847 82.9566C64.3904 92.3484 62.7598 109.314 61.768 118.962C60.3438 132.809 59.6081 138.612 59.0185 149.297Z" stroke="black" stroke-width="3" stroke-linecap="round" stroke-linejoin="round"/>
<path d="M83.6988 40.5043C83.4385 40.6549 88.2666 45.8441 89.5356 39.2908" stroke="black" stroke-width="3" stroke-linecap="round" stroke-linejoin="round"/>
<path d="M93.3318 43.891C93.0345 43.2367 87.7189 44.9352 84.0838 44.4077C82.0708 43.7593 81.9207 43.0288 81.4102 41.8165" stroke="black" stroke-width="3" stroke-linecap="round" stroke-linejoin="round"/>
<path d="M102.204 44.2068C102.995 44.0878 103.673 44.2271 104.84 42.3766C105.186 42.0215 105.278 41.443 106.263 40.6141C108.923 38.8381 112.095 38.9933 114.449 40.1568C116.803 41.321 116.16 40.7431 116.361 41.733L122.121 41.4112" stroke="black" stroke-width="3" stroke-linecap="round" stroke-linejoin="round"/>
<path d="M258.86 73.908C253.804 71.22 249.132 68.948 244.844 67.092C241.452 65.62 237.804 65.78 233.9 67.572C230.06 69.364 226.796 72.212 224.108 76.116C221.42 80.02 219.34 84.276 217.868 88.884C216.396 93.492 216.332 98.164 217.676 102.9C219.084 107.636 221.964 111.444 226.316 114.324C228.62 115.86 231.02 116.756 233.516 117.012C236.076 117.268 238.604 116.916 241.1 115.956C243.596 114.996 245.804 113.94 247.724 112.788C249.644 111.636 251.756 110.196 254.06 108.468L265.676 117.012C262.284 119.892 258.604 122.196 254.636 123.924C250.732 125.652 246.54 126.676 242.06 126.996C237.644 127.316 233.548 126.324 229.772 124.02C223.436 120.308 217.356 115.796 211.532 110.484C208.908 108.052 206.86 105.396 205.388 102.516C203.98 99.572 203.18 96.66 202.988 93.78C202.796 90.836 202.988 87.828 203.564 84.756C204.14 81.684 205.164 78.804 206.636 76.116C208.172 73.428 209.868 70.868 211.724 68.436C213.644 66.004 215.82 63.956 218.252 62.292C220.684 60.564 223.148 59.156 225.644 58.068C228.14 56.916 230.7 56.372 233.324 56.436C236.012 56.5 238.54 57.012 240.908 57.972C250.508 62.388 258.06 65.972 263.564 68.724L258.86 73.908ZM302.354 88.308C298.13 85.428 293.746 85.876 289.202 89.652C285.426 92.852 282.898 97.108 281.618 102.42C280.21 108.5 281.298 113.076 284.882 116.148C285.33 116.532 285.81 116.884 286.322 117.204C288.882 118.612 291.506 118.932 294.194 118.164C296.946 117.396 299.314 115.7 301.298 113.076C303.346 110.452 304.946 107.668 306.098 104.724C307.25 101.716 307.538 98.676 306.962 95.604C306.386 92.468 304.85 90.036 302.354 88.308ZM311.954 89.076C313.81 90.74 315.25 92.756 316.274 95.124C317.298 97.428 317.874 99.796 318.002 102.228C318.194 104.66 317.97 107.124 317.33 109.62C316.754 112.116 315.858 114.452 314.642 116.628C313.426 118.804 311.89 120.756 310.034 122.484C308.242 124.148 306.258 125.396 304.082 126.228C301.906 127.124 299.474 127.476 296.786 127.284C294.162 127.092 291.474 126.26 288.722 124.788C285.138 122.868 281.618 120.436 278.162 117.492C275.41 115.124 273.362 112.468 272.018 109.524C270.674 106.516 270.034 103.604 270.098 100.788C270.226 97.972 270.77 95.156 271.73 92.34C272.754 89.524 274.194 87.092 276.05 85.044C277.97 82.996 280.05 81.268 282.29 79.86C284.53 78.388 286.93 77.62 289.49 77.556C292.114 77.492 294.642 78.036 297.074 79.188C303.282 82.452 308.242 85.748 311.954 89.076ZM362.339 81.78L361.283 86.964C355.075 85.556 350.979 84.98 348.995 85.236C345.859 85.62 343.395 87.156 341.603 89.844C339.811 92.468 339.171 94.996 339.683 97.428C339.811 98.004 341.283 97.94 344.099 97.236C346.915 96.532 349.987 95.828 353.315 95.124C356.643 94.356 358.787 94.228 359.747 94.74C364.163 97.044 367.139 100.084 368.675 103.86C370.211 107.636 370.371 111.252 369.155 114.708C368.003 118.1 365.603 121.044 361.955 123.54C358.307 126.036 353.923 127.284 348.803 127.284C344.579 127.284 340.643 126.132 336.995 123.828C333.411 121.46 329.187 117.94 324.323 113.268L326.051 110.004C330.403 113.268 335.011 115.476 339.875 116.628C344.739 117.716 349.251 117.268 353.411 115.284C357.635 113.3 360.451 109.652 361.859 104.34C361.923 104.084 361.635 103.988 360.995 104.052C360.291 104.116 358.531 104.532 355.715 105.3C346.819 107.668 341.155 108.372 338.723 107.412L337.859 106.932C334.339 104.244 331.491 101.3 329.315 98.1C327.715 95.924 327.043 93.62 327.299 91.188C327.619 88.756 328.451 86.548 329.795 84.564C331.139 82.516 333.155 80.852 335.843 79.572C338.531 78.228 341.475 77.556 344.675 77.556C345.635 77.556 346.979 77.748 348.707 78.132C350.499 78.516 352.995 79.188 356.195 80.148C359.459 81.044 361.507 81.588 362.339 81.78ZM390.326 81.3V83.892C394.87 79.476 399.062 77.396 402.902 77.652C404.118 77.716 406.102 78.868 408.854 81.108C411.606 83.284 414.23 85.716 416.726 88.404C422.742 80.916 428.31 77.332 433.43 77.652C435.478 77.78 439.062 80.34 444.182 85.332C449.366 90.26 452.118 93.62 452.438 95.412C452.694 97.076 452.822 107.7 452.822 127.284L440.918 124.596C441.302 102.58 441.142 90.932 440.438 89.652C439.67 88.244 438.55 87.508 437.078 87.444C435.67 87.38 434.102 87.86 432.374 88.884C430.71 89.908 429.014 91.22 427.286 92.82C425.558 94.356 423.83 96.116 422.102 98.1C422.23 101.62 422.294 111.348 422.294 127.284L410.39 124.596C410.774 102.58 410.614 90.932 409.91 89.652C408.95 88.244 407.734 87.508 406.262 87.444C404.854 87.38 403.19 87.988 401.27 89.268C399.35 90.484 397.462 91.988 395.606 93.78C393.814 95.508 392.054 97.46 390.326 99.636V127.284L378.326 124.596V78.612L390.326 81.3ZM470.559 72.756C467.295 71.22 464.863 68.884 463.263 65.748C463.391 64.724 464.351 63.412 466.143 61.812C467.935 60.212 469.375 59.284 470.463 59.028C473.727 60.5 476.127 62.772 477.663 65.844C476.575 68.596 474.207 70.9 470.559 72.756ZM476.319 81.3V127.284L464.319 124.596V78.612L476.319 81.3ZM529.538 85.14L526.082 90.132C525.122 89.812 524.002 89.428 522.722 88.98C521.442 88.468 520.45 88.116 519.746 87.924C519.042 87.668 518.274 87.412 517.442 87.156C516.61 86.9 515.906 86.74 515.33 86.676C514.818 86.548 514.338 86.484 513.89 86.484C509.73 86.676 506.21 89.364 503.33 94.548C500.578 99.54 499.522 104.564 500.162 109.62C500.738 114.676 502.978 117.492 506.882 118.068C511.426 118.708 517.506 116.084 525.122 110.196L526.946 112.308C528.226 113.716 529.474 115.156 530.69 116.628L532.514 118.74C530.018 120.596 527.81 122.1 525.89 123.252C524.034 124.404 522.114 125.332 520.13 126.036C518.146 126.804 516.194 127.156 514.274 127.092C512.418 127.092 510.498 126.708 508.514 125.94C503.01 123.828 497.826 120.116 492.962 114.804C490.082 111.604 488.482 107.828 488.162 103.476C487.906 99.06 488.674 94.964 490.466 91.188C492.322 87.412 495.042 84.212 498.626 81.588C502.21 78.9 506.114 77.556 510.338 77.556C512.322 77.556 518.722 80.084 529.538 85.14ZM618.7 69.588C612.3 65.364 605.964 65.588 599.692 70.26C594.636 74.1 590.956 79.636 588.652 86.868C586.156 94.932 586.412 101.876 589.42 107.7C590.892 110.644 593.068 112.98 595.948 114.708C602.412 118.612 608.748 118.164 614.956 113.364C620.012 109.46 623.628 103.86 625.804 96.564C628.172 88.5 627.724 81.588 624.46 75.828C623.052 73.268 621.132 71.188 618.7 69.588ZM633.676 74.292C636.108 76.66 637.932 79.476 639.148 82.74C640.364 85.94 640.94 89.236 640.876 92.628C640.876 95.956 640.332 99.348 639.244 102.804C638.22 106.26 636.78 109.492 634.924 112.5C633.132 115.444 630.956 118.1 628.396 120.468C625.836 122.772 623.084 124.532 620.14 125.748C617.196 126.964 613.996 127.476 610.54 127.284C607.084 127.092 603.692 126.036 600.364 124.116C599.852 123.796 598.924 123.284 597.58 122.58C596.3 121.876 595.372 121.396 594.796 121.14C594.284 120.82 593.484 120.34 592.396 119.7C591.308 118.996 590.38 118.388 589.612 117.876C588.908 117.3 588.012 116.628 586.924 115.86C585.9 115.028 584.844 114.132 583.756 113.172C582.668 112.212 581.516 111.124 580.3 109.908C577.932 107.668 576.172 104.98 575.02 101.844C573.932 98.708 573.42 95.476 573.484 92.148C573.612 88.82 574.188 85.46 575.212 82.068C576.236 78.612 577.644 75.38 579.436 72.372C581.292 69.3 583.468 66.58 585.964 64.212C588.46 61.78 591.084 59.892 593.836 58.548C596.652 57.14 599.66 56.436 602.86 56.436C606.06 56.436 609.196 57.268 612.268 58.932C620.588 63.412 627.724 68.532 633.676 74.292ZM663.89 81.3V88.404C668.562 81.044 672.53 77.364 675.794 77.364C677.394 77.364 680.082 78.196 683.858 79.86C687.634 81.46 690.802 83.124 693.362 84.852L686.738 94.452C682.77 91.508 679.314 89.908 676.37 89.652C673.49 89.332 671.186 89.908 669.458 91.38C667.73 92.788 665.874 95.092 663.89 98.292V127.284L651.89 124.596V78.612L663.89 81.3ZM712.77 119.604C717.826 122.164 723.938 120.916 731.106 115.86V88.884C729.25 87.796 726.658 87.06 723.33 86.676C720.706 86.42 718.146 87.764 715.65 90.708C713.154 93.588 711.266 96.948 709.986 100.788C708.706 104.628 708.226 108.436 708.546 112.212C708.93 115.924 710.338 118.388 712.77 119.604ZM731.106 56.34L743.106 59.028C743.49 102.228 743.49 124.02 743.106 124.404C742.786 124.468 741.122 124.82 738.114 125.46C735.17 126.164 733.282 126.58 732.45 126.708C731.618 126.836 729.89 127.028 727.266 127.284C724.706 127.54 722.658 127.54 721.122 127.284C719.65 127.028 717.794 126.58 715.554 125.94C713.314 125.364 711.17 124.5 709.122 123.348C705.474 121.364 702.658 118.932 700.674 116.052C698.69 113.172 697.634 110.228 697.506 107.22C697.378 104.212 697.73 101.172 698.562 98.1C699.394 94.964 700.706 92.116 702.498 89.556C704.354 86.932 706.306 84.628 708.354 82.644C710.466 80.66 712.674 79.252 714.978 78.42C717.282 77.524 719.33 77.364 721.122 77.94C721.954 78.196 722.818 78.58 723.714 79.092C724.674 79.54 725.442 79.956 726.018 80.34C726.658 80.724 727.522 81.3 728.61 82.068C729.762 82.836 730.594 83.38 731.106 83.7V56.34ZM765.274 105.396L787.066 90.516C782.458 87.572 778.522 86.484 775.258 87.252C772.058 88.02 769.594 90.036 767.866 93.3C766.138 96.5 765.274 100.532 765.274 105.396ZM767.482 114.612C769.274 116.788 771.29 118.132 773.53 118.644C775.77 119.156 778.106 118.868 780.538 117.78C783.034 116.628 785.114 115.508 786.778 114.42C788.442 113.268 790.394 111.764 792.634 109.908L794.554 111.828C795.77 113.172 796.986 114.516 798.202 115.86L800.122 117.78C794.554 121.876 789.85 124.596 786.01 125.94C782.17 127.348 778.362 127.348 774.586 125.94C769.082 123.828 763.898 120.116 759.034 114.804C756.154 111.604 754.49 107.828 754.042 103.476C753.594 99.06 754.138 94.964 755.674 91.188C757.274 87.412 759.706 84.212 762.97 81.588C766.298 78.9 769.914 77.556 773.818 77.556C776.378 77.556 780.154 79.22 785.146 82.548C790.202 85.812 794.394 89.012 797.722 92.148C797.658 92.34 795.098 94.324 790.042 98.1C785.05 101.812 780.026 105.492 774.97 109.14L767.482 114.612ZM820.64 81.3V88.404C825.312 81.044 829.28 77.364 832.544 77.364C834.144 77.364 836.832 78.196 840.608 79.86C844.384 81.46 847.552 83.124 850.112 84.852L843.488 94.452C839.52 91.508 836.064 89.908 833.12 89.652C830.24 89.332 827.936 89.908 826.208 91.38C824.48 92.788 822.624 95.092 820.64 98.292V127.284L808.64 124.596V78.612L820.64 81.3ZM944.267 73.908C939.211 71.22 934.539 68.948 930.251 67.092C926.859 65.62 923.211 65.78 919.307 67.572C915.467 69.364 912.203 72.212 909.515 76.116C906.827 80.02 904.747 84.276 903.275 88.884C901.803 93.492 901.739 98.164 903.083 102.9C904.491 107.636 907.371 111.444 911.723 114.324C914.027 115.86 916.427 116.756 918.923 117.012C921.483 117.268 924.011 116.916 926.507 115.956C929.003 114.996 931.211 113.94 933.131 112.788C935.051 111.636 937.163 110.196 939.467 108.468L951.083 117.012C947.691 119.892 944.011 122.196 940.043 123.924C936.139 125.652 931.947 126.676 927.467 126.996C923.051 127.316 918.955 126.324 915.179 124.02C908.843 120.308 902.763 115.796 896.939 110.484C894.315 108.052 892.267 105.396 890.795 102.516C889.387 99.572 888.587 96.66 888.395 93.78C888.203 90.836 888.395 87.828 888.971 84.756C889.547 81.684 890.571 78.804 892.043 76.116C893.579 73.428 895.275 70.868 897.131 68.436C899.051 66.004 901.227 63.956 903.659 62.292C906.091 60.564 908.555 59.156 911.051 58.068C913.547 56.916 916.107 56.372 918.731 56.436C921.419 56.5 923.947 57.012 926.315 57.972C935.915 62.388 943.467 65.972 948.971 68.724L944.267 73.908ZM967.024 105.396L988.816 90.516C984.208 87.572 980.272 86.484 977.008 87.252C973.808 88.02 971.344 90.036 969.616 93.3C967.888 96.5 967.024 100.532 967.024 105.396ZM969.232 114.612C971.024 116.788 973.04 118.132 975.28 118.644C977.52 119.156 979.856 118.868 982.288 117.78C984.784 116.628 986.864 115.508 988.528 114.42C990.192 113.268 992.144 111.764 994.384 109.908L996.304 111.828C997.52 113.172 998.736 114.516 999.952 115.86L1001.87 117.78C996.304 121.876 991.6 124.596 987.76 125.94C983.92 127.348 980.112 127.348 976.336 125.94C970.832 123.828 965.648 120.116 960.784 114.804C957.904 111.604 956.24 107.828 955.792 103.476C955.344 99.06 955.888 94.964 957.424 91.188C959.024 87.412 961.456 84.212 964.72 81.588C968.048 78.9 971.664 77.556 975.568 77.556C978.128 77.556 981.904 79.22 986.896 82.548C991.952 85.812 996.144 89.012 999.472 92.148C999.408 92.34 996.848 94.324 991.792 98.1C986.8 101.812 981.776 105.492 976.72 109.14L969.232 114.612ZM1022.39 81.3V88.404C1027.06 81.044 1031.03 77.364 1034.29 77.364C1035.89 77.364 1038.58 78.196 1042.36 79.86C1046.13 81.46 1049.3 83.124 1051.86 84.852L1045.24 94.452C1041.27 91.508 1037.81 89.908 1034.87 89.652C1031.99 89.332 1029.69 89.908 1027.96 91.38C1026.23 92.788 1024.37 95.092 1022.39 98.292V127.284L1010.39 124.596V78.612L1022.39 81.3ZM1061.77 90.804L1056.58 82.068C1061.06 80.916 1066.02 79.828 1071.46 78.804C1076.97 77.78 1080.42 77.3 1081.83 77.364C1083.24 77.428 1086.05 79.54 1090.28 83.7C1094.5 87.796 1097.35 90.932 1098.82 93.108C1099.33 93.876 1099.59 96.468 1099.59 100.884C1099.59 105.236 1099.49 110.228 1099.3 115.86C1099.17 121.492 1099.14 125.3 1099.21 127.284L1087.3 124.5L1087.4 119.604C1082.21 124.788 1077.99 127.38 1074.73 127.38C1071.65 127.316 1067.75 124.404 1063.01 118.644C1058.28 112.884 1055.91 108.756 1055.91 106.26C1055.91 104.276 1057.25 102.452 1059.94 100.788C1062.63 99.124 1065.89 97.844 1069.73 96.948C1073.64 95.988 1077.09 95.252 1080.1 94.74C1083.11 94.228 1085.67 93.876 1087.78 93.684L1087.88 91.092C1087.94 88.02 1086.31 86.356 1082.98 86.1C1079.91 85.908 1073.45 87.284 1063.59 90.228H1063.49L1063.4 90.324H1063.3H1063.21L1063.11 90.42H1063.01H1062.92L1062.82 90.516H1062.73H1062.63L1062.53 90.612H1062.44H1062.34H1062.25L1062.15 90.708H1062.05H1061.96L1061.86 90.804H1061.77ZM1066.57 114.9C1067.14 115.796 1068.23 116.372 1069.83 116.628C1071.43 116.884 1073.83 116.468 1077.03 115.38C1080.29 114.228 1083.81 112.244 1087.59 109.428L1087.69 100.98C1070.79 105.908 1063.75 110.548 1066.57 114.9ZM1122.98 81.3V83.892C1127.53 79.476 1131.72 77.396 1135.56 77.652C1136.77 77.716 1138.76 78.868 1141.51 81.108C1144.26 83.284 1146.89 85.716 1149.38 88.404C1155.4 80.916 1160.97 77.332 1166.09 77.652C1168.13 77.78 1171.72 80.34 1176.84 85.332C1182.02 90.26 1184.77 93.62 1185.09 95.412C1185.35 97.076 1185.48 107.7 1185.48 127.284L1173.57 124.596C1173.96 102.58 1173.8 90.932 1173.09 89.652C1172.33 88.244 1171.21 87.508 1169.73 87.444C1168.33 87.38 1166.76 87.86 1165.03 88.884C1163.37 89.908 1161.67 91.22 1159.94 92.82C1158.21 94.356 1156.49 96.116 1154.76 98.1C1154.89 101.62 1154.95 111.348 1154.95 127.284L1143.05 124.596C1143.43 102.58 1143.27 90.932 1142.57 89.652C1141.61 88.244 1140.39 87.508 1138.92 87.444C1137.51 87.38 1135.85 87.988 1133.93 89.268C1132.01 90.484 1130.12 91.988 1128.26 93.78C1126.47 95.508 1124.71 97.46 1122.98 99.636V127.284L1110.98 124.596V78.612L1122.98 81.3ZM1203.22 72.756C1199.95 71.22 1197.52 68.884 1195.92 65.748C1196.05 64.724 1197.01 63.412 1198.8 61.812C1200.59 60.212 1202.03 59.284 1203.12 59.028C1206.38 60.5 1208.78 62.772 1210.32 65.844C1209.23 68.596 1206.86 70.9 1203.22 72.756ZM1208.98 81.3V127.284L1196.98 124.596V78.612L1208.98 81.3ZM1262.19 85.14L1258.74 90.132C1257.78 89.812 1256.66 89.428 1255.38 88.98C1254.1 88.468 1253.11 88.116 1252.4 87.924C1251.7 87.668 1250.93 87.412 1250.1 87.156C1249.27 86.9 1248.56 86.74 1247.99 86.676C1247.47 86.548 1246.99 86.484 1246.55 86.484C1242.39 86.676 1238.87 89.364 1235.99 94.548C1233.23 99.54 1232.18 104.564 1232.82 109.62C1233.39 114.676 1235.63 117.492 1239.54 118.068C1244.08 118.708 1250.16 116.084 1257.78 110.196L1259.6 112.308C1260.88 113.716 1262.13 115.156 1263.35 116.628L1265.17 118.74C1262.67 120.596 1260.47 122.1 1258.55 123.252C1256.69 124.404 1254.77 125.332 1252.79 126.036C1250.8 126.804 1248.85 127.156 1246.93 127.092C1245.07 127.092 1243.15 126.708 1241.17 125.94C1235.67 123.828 1230.48 120.116 1225.62 114.804C1222.74 111.604 1221.14 107.828 1220.82 103.476C1220.56 99.06 1221.33 94.964 1223.12 91.188C1224.98 87.412 1227.7 84.212 1231.28 81.588C1234.87 78.9 1238.77 77.556 1242.99 77.556C1244.98 77.556 1251.38 80.084 1262.19 85.14ZM1307.71 81.78L1306.66 86.964C1300.45 85.556 1296.35 84.98 1294.37 85.236C1291.23 85.62 1288.77 87.156 1286.98 89.844C1285.19 92.468 1284.55 94.996 1285.06 97.428C1285.19 98.004 1286.66 97.94 1289.47 97.236C1292.29 96.532 1295.36 95.828 1298.69 95.124C1302.02 94.356 1304.16 94.228 1305.12 94.74C1309.54 97.044 1312.51 100.084 1314.05 103.86C1315.59 107.636 1315.75 111.252 1314.53 114.708C1313.38 118.1 1310.98 121.044 1307.33 123.54C1303.68 126.036 1299.3 127.284 1294.18 127.284C1289.95 127.284 1286.02 126.132 1282.37 123.828C1278.79 121.46 1274.56 117.94 1269.7 113.268L1271.43 110.004C1275.78 113.268 1280.39 115.476 1285.25 116.628C1290.11 117.716 1294.63 117.268 1298.79 115.284C1303.01 113.3 1305.83 109.652 1307.23 104.34C1307.3 104.084 1307.01 103.988 1306.37 104.052C1305.67 104.116 1303.91 104.532 1301.09 105.3C1292.19 107.668 1286.53 108.372 1284.1 107.412L1283.23 106.932C1279.71 104.244 1276.87 101.3 1274.69 98.1C1273.09 95.924 1272.42 93.62 1272.67 91.188C1272.99 88.756 1273.83 86.548 1275.17 84.564C1276.51 82.516 1278.53 80.852 1281.22 79.572C1283.91 78.228 1286.85 77.556 1290.05 77.556C1291.01 77.556 1292.35 77.748 1294.08 78.132C1295.87 78.516 1298.37 79.188 1301.57 80.148C1304.83 81.044 1306.88 81.588 1307.71 81.78Z" fill="black"/>
</svg>
