<svg width="135" height="46" fill="none" xmlns="http://www.w3.org/2000/svg">
  <path d="M11.68 4.46a40.808 40.808 0 0 0-2.92-1.42c-.707-.307-1.467-.273-2.28.1-.8.373-1.48.967-2.04 1.78-.56.813-.993 1.7-1.3 2.66a4.953 4.953 0 0 0-.04 2.92c.293.987.893 1.78 1.8 2.38.48.32.98.507 1.5.56.533.053 1.06-.02 1.58-.22s.98-.42 1.38-.66c.4-.24.84-.54 1.32-.9l2.42 1.78a9.24 9.24 0 0 1-2.3 1.44 7.794 7.794 0 0 1-2.62.64 4.215 4.215 0 0 1-2.56-.62 22.585 22.585 0 0 1-3.8-2.82 5.971 5.971 0 0 1-1.28-1.66 4.973 4.973 0 0 1-.5-1.82C0 7.987.04 7.36.16 6.72c.12-.64.333-1.24.64-1.8.32-.56.673-1.093 1.06-1.6.4-.507.853-.933 1.36-1.28a8.587 8.587 0 0 1 1.54-.88 3.567 3.567 0 0 1 1.6-.34c.56.013 1.087.12 1.58.32 2 .92 3.573 1.667 4.72 2.24l-.98 1.08ZM20.741 7.46c-.88-.6-1.793-.507-2.74.28-.787.667-1.313 1.553-1.58 2.66-.293 1.267-.067 2.22.68 2.86.093.08.193.153.3.22.533.293 1.08.36 1.64.2.573-.16 1.067-.513 1.48-1.06a6.918 6.918 0 0 0 1-1.74c.24-.627.3-1.26.18-1.9-.12-.653-.44-1.16-.96-1.52Zm2 .16c.387.347.687.767.9 1.26.213.48.333.973.36 1.48.04.507-.007 1.02-.14 1.54a5.522 5.522 0 0 1-.56 1.46c-.253.453-.573.86-.96 1.22a3.812 3.812 0 0 1-1.24.78c-.453.187-.96.26-1.52.22-.547-.04-1.107-.213-1.68-.52-.747-.4-1.48-.907-2.2-1.52-.573-.493-1-1.047-1.28-1.66-.28-.627-.413-1.233-.4-1.82.027-.587.14-1.173.34-1.76a4.55 4.55 0 0 1 .9-1.52c.4-.427.833-.787 1.3-1.08a2.815 2.815 0 0 1 1.5-.48c.547-.013 1.073.1 1.58.34 1.293.68 2.327 1.367 3.1 2.06ZM33.238 6.1l-.22 1.08c-1.293-.293-2.147-.413-2.56-.36-.653.08-1.167.4-1.54.96-.373.547-.507 1.073-.4 1.58.027.12.333.107.92-.04a54.11 54.11 0 0 1 1.92-.44c.693-.16 1.14-.187 1.34-.08.92.48 1.54 1.113 1.86 1.9.32.787.353 1.54.1 2.26-.24.707-.74 1.32-1.5 1.84s-1.673.78-2.74.78c-.88 0-1.7-.24-2.46-.72-.747-.493-1.627-1.227-2.64-2.2l.36-.68c.907.68 1.867 1.14 2.88 1.38 1.013.227 1.953.133 2.82-.28.88-.413 1.467-1.173 1.76-2.28.013-.053-.047-.073-.18-.06-.147.013-.513.1-1.1.26-1.853.493-3.033.64-3.54.44l-.18-.1c-.733-.56-1.327-1.173-1.78-1.84-.333-.453-.473-.933-.42-1.44a3.16 3.16 0 0 1 .52-1.38c.28-.427.7-.773 1.26-1.04.56-.28 1.173-.42 1.84-.42.2 0 .48.04.84.12.373.08.893.22 1.56.42.68.187 1.107.3 1.28.34ZM39.069 6v.54c.946-.92 1.82-1.353 2.62-1.3.253.013.666.253 1.24.72.573.453 1.12.96 1.64 1.52 1.253-1.56 2.413-2.307 3.48-2.24.426.027 1.173.56 2.24 1.6 1.08 1.027 1.653 1.727 1.72 2.1.053.347.08 2.56.08 6.64l-2.48-.56c.08-4.587.046-7.013-.1-7.28-.16-.293-.394-.447-.7-.46-.294-.013-.62.087-.98.3a6.9 6.9 0 0 0-1.06.82c-.36.32-.72.687-1.08 1.1.026.733.04 2.76.04 6.08l-2.48-.56c.08-4.587.046-7.013-.1-7.28-.2-.293-.454-.447-.76-.46-.294-.013-.64.113-1.04.38-.4.253-.794.567-1.18.94-.374.36-.74.767-1.1 1.22v5.76l-2.5-.56V5.44l2.5.56ZM55.784 4.22a3.171 3.171 0 0 1-1.52-1.46c.027-.213.227-.487.6-.82.373-.333.673-.527.9-.58.68.307 1.18.78 1.5 1.42-.227.573-.72 1.053-1.48 1.44Zm1.2 1.78v9.58l-2.5-.56V5.44l2.5.56ZM68.071 6.8l-.72 1.04c-.2-.067-.433-.147-.7-.24a6.208 6.208 0 0 0-.62-.22 10.077 10.077 0 0 0-.48-.16 2.476 2.476 0 0 0-.44-.1 1.24 1.24 0 0 0-.3-.04c-.866.04-1.6.6-2.2 1.68-.573 1.04-.793 2.087-.66 3.14.12 1.053.587 1.64 1.4 1.76.947.133 2.214-.413 3.8-1.64l.38.44c.267.293.527.593.78.9l.38.44c-.52.387-.98.7-1.38.94a6.21 6.21 0 0 1-1.2.58c-.413.16-.82.233-1.22.22-.386 0-.786-.08-1.2-.24-1.146-.44-2.226-1.213-3.24-2.32a3.854 3.854 0 0 1-1-2.36 5.175 5.175 0 0 1 .48-2.56 5.423 5.423 0 0 1 1.7-2c.747-.56 1.56-.84 2.44-.84.414 0 1.747.527 4 1.58ZM86.647 3.56c-1.334-.88-2.654-.833-3.96.14-1.054.8-1.82 1.953-2.3 3.46-.52 1.68-.467 3.127.16 4.34.306.613.76 1.1 1.36 1.46 1.346.813 2.666.72 3.96-.28 1.053-.813 1.806-1.98 2.26-3.5.493-1.68.4-3.12-.28-4.32a3.624 3.624 0 0 0-1.2-1.3Zm3.12.98c.506.493.886 1.08 1.14 1.76a5.46 5.46 0 0 1 .36 2.06c0 .693-.114 1.4-.34 2.12a8.346 8.346 0 0 1-.9 2.02 7.723 7.723 0 0 1-1.36 1.66 5.979 5.979 0 0 1-1.72 1.1c-.614.253-1.28.36-2 .32-.72-.04-1.427-.26-2.12-.66-.107-.067-.3-.173-.58-.32a8.775 8.775 0 0 0-.58-.3 23.982 23.982 0 0 0-.5-.3c-.227-.147-.42-.273-.58-.38-.147-.12-.334-.26-.56-.42a21.12 21.12 0 0 1-.66-.56c-.227-.2-.467-.427-.72-.68a4.336 4.336 0 0 1-1.1-1.68 5.774 5.774 0 0 1-.32-2.02 8.353 8.353 0 0 1 .36-2.1c.213-.72.506-1.393.88-2.02.386-.64.84-1.207 1.36-1.7.52-.507 1.066-.9 1.64-1.18a4.146 4.146 0 0 1 1.88-.44c.666 0 1.32.173 1.96.52 1.733.933 3.22 2 4.46 3.2ZM96.061 6v1.48c.974-1.533 1.8-2.3 2.48-2.3.334 0 .894.173 1.68.52.787.333 1.447.68 1.98 1.04l-1.38 2c-.826-.613-1.546-.947-2.16-1-.6-.067-1.08.053-1.44.36-.36.293-.746.773-1.16 1.44v6.04l-2.5-.56V5.44l2.5.56ZM106.245 13.98c1.053.533 2.326.273 3.82-.78V7.58c-.387-.227-.927-.38-1.62-.46-.547-.053-1.08.227-1.6.84-.52.6-.914 1.3-1.18 2.1a5.878 5.878 0 0 0-.3 2.38c.08.773.373 1.287.88 1.54ZM110.065.8l2.5.56c.08 9 .08 13.54 0 13.62-.067.013-.414.087-1.04.22a20.08 20.08 0 0 1-1.18.26c-.174.027-.534.067-1.08.12-.534.053-.96.053-1.28 0a11.6 11.6 0 0 1-1.16-.28c-.467-.12-.914-.3-1.34-.54-.76-.413-1.347-.92-1.76-1.52-.414-.6-.634-1.213-.66-1.84a6.19 6.19 0 0 1 .22-1.9 5.543 5.543 0 0 1 .82-1.78 10.12 10.12 0 0 1 1.22-1.44c.44-.413.9-.707 1.38-.88.48-.187.906-.22 1.28-.1.173.053.353.133.54.24.2.093.36.18.48.26.133.08.313.2.54.36.24.16.413.273.52.34V.8ZM117.183 11.02l4.54-3.1c-.96-.613-1.78-.84-2.46-.68-.667.16-1.18.58-1.54 1.26-.36.667-.54 1.507-.54 2.52Zm.46 1.92c.373.453.793.733 1.26.84.466.107.953.047 1.46-.18.52-.24.953-.473 1.3-.7.346-.24.753-.553 1.22-.94l.4.4.76.84.4.4c-1.16.853-2.14 1.42-2.94 1.7-.8.293-1.594.293-2.38 0-1.147-.44-2.227-1.213-3.24-2.32a4.059 4.059 0 0 1-1.04-2.36c-.094-.92.02-1.773.34-2.56a5.07 5.07 0 0 1 1.52-2c.693-.56 1.446-.84 2.26-.84.533 0 1.32.347 2.36 1.04 1.053.68 1.926 1.347 2.62 2-.014.04-.547.453-1.6 1.24-1.04.773-2.087 1.54-3.14 2.3l-1.56 1.14ZM128.718 6v1.48c.973-1.533 1.8-2.3 2.48-2.3.333 0 .893.173 1.679.52.787.333 1.447.68 1.981 1.04l-1.38 2c-.827-.613-1.547-.947-2.161-1-.6-.067-1.08.053-1.44.36-.36.293-.746.773-1.159 1.44v6.04l-2.501-.56V5.44l2.501.56ZM11.68 34.46a40.825 40.825 0 0 0-2.92-1.42c-.707-.307-1.467-.273-2.28.1-.8.373-1.48.967-2.04 1.78-.56.813-.993 1.7-1.3 2.66a4.953 4.953 0 0 0-.04 2.92c.293.987.893 1.78 1.8 2.38.48.32.98.507 1.5.56.533.053 1.06-.02 1.58-.22s.98-.42 1.38-.66c.4-.24.84-.54 1.32-.9l2.42 1.78a9.24 9.24 0 0 1-2.3 1.44 7.794 7.794 0 0 1-2.62.64 4.215 4.215 0 0 1-2.56-.62 22.585 22.585 0 0 1-3.8-2.82 5.971 5.971 0 0 1-1.28-1.66 4.972 4.972 0 0 1-.5-1.82c-.04-.613 0-1.24.12-1.88.12-.64.333-1.24.64-1.8.32-.56.673-1.093 1.06-1.6.4-.507.853-.933 1.36-1.28a8.59 8.59 0 0 1 1.54-.88 3.568 3.568 0 0 1 1.6-.34 4.45 4.45 0 0 1 1.58.32c2 .92 3.573 1.667 4.72 2.24l-.98 1.08ZM16.421 41.02l4.54-3.1c-.96-.613-1.78-.84-2.46-.68-.667.16-1.18.58-1.54 1.26-.36.667-.54 1.507-.54 2.52Zm.46 1.92c.373.453.793.733 1.26.84.467.107.953.047 1.46-.18.52-.24.953-.473 1.3-.7.347-.24.753-.553 1.22-.94l.4.4.76.84.4.4c-1.16.853-2.14 1.42-2.94 1.7-.8.293-1.593.293-2.38 0-1.147-.44-2.227-1.213-3.24-2.32a4.06 4.06 0 0 1-1.04-2.36c-.093-.92.02-1.773.34-2.56a5.072 5.072 0 0 1 1.52-2c.693-.56 1.447-.84 2.26-.84.533 0 1.32.347 2.36 1.04 1.053.68 1.927 1.347 2.62 2-.013.04-.547.453-1.6 1.24-1.04.773-2.087 1.54-3.14 2.3l-1.56 1.14ZM27.956 36v1.48c.973-1.533 1.8-2.3 2.48-2.3.333 0 .893.173 1.68.52.787.333 1.446.68 1.98 1.04l-1.38 2c-.827-.613-1.547-.947-2.16-1-.6-.067-1.08.053-1.44.36-.36.293-.747.773-1.16 1.44v6.04l-2.5-.56v-9.58l2.5.56ZM36.16 37.98l-1.08-1.82c.932-.24 1.966-.467 3.1-.68 1.146-.213 1.866-.313 2.16-.3.292.013.88.453 1.76 1.32.88.853 1.472 1.507 1.78 1.96.106.16.16.7.16 1.62 0 .907-.02 1.947-.06 3.12-.028 1.173-.034 1.967-.02 2.38L41.48 45l.02-1.02c-1.08 1.08-1.96 1.62-2.64 1.62-.64-.013-1.454-.62-2.44-1.82-.988-1.2-1.48-2.06-1.48-2.58 0-.413.28-.793.84-1.14.56-.347 1.24-.613 2.04-.8.812-.2 1.532-.353 2.16-.46.626-.107 1.16-.18 1.6-.22l.02-.54c.012-.64-.328-.987-1.02-1.04-.64-.04-1.988.247-4.04.86h-.02l-.02.02h-.04l-.02.02h-.04l-.02.02h-.04l-.02.02h-.06l-.02.02h-.04l-.02.02h-.02Zm1 5.02c.12.187.346.307.68.36.332.053.832-.033 1.5-.26.68-.24 1.412-.653 2.2-1.24l.02-1.76c-3.52 1.027-4.988 1.993-4.4 2.9ZM48.912 36v.54c.947-.92 1.82-1.353 2.62-1.3.254.013.667.253 1.24.72.574.453 1.12.96 1.64 1.52 1.254-1.56 2.414-2.307 3.48-2.24.427.027 1.174.56 2.24 1.6 1.08 1.027 1.654 1.727 1.72 2.1.054.347.08 2.56.08 6.64l-2.48-.56c.08-4.587.047-7.013-.1-7.28-.16-.293-.393-.447-.7-.46-.293-.013-.62.087-.98.3-.346.213-.7.487-1.06.82-.36.32-.72.687-1.08 1.1.027.733.04 2.76.04 6.08l-2.48-.56c.08-4.587.047-7.013-.1-7.28-.2-.293-.453-.447-.76-.46-.293-.013-.64.113-1.04.38-.4.253-.793.567-1.18.94-.373.36-.74.767-1.1 1.22v5.76l-2.5-.56v-9.58l2.5.56ZM65.628 34.22a3.171 3.171 0 0 1-1.52-1.46c.026-.213.226-.487.6-.82.373-.333.673-.527.9-.58.68.307 1.18.78 1.5 1.42-.227.573-.72 1.053-1.48 1.44Zm1.2 1.78v9.58l-2.5-.56v-9.58l2.5.56ZM77.915 36.8l-.72 1.04a51.44 51.44 0 0 1-.7-.24 6.2 6.2 0 0 0-.62-.22 10.132 10.132 0 0 0-.48-.16 2.475 2.475 0 0 0-.44-.1 1.239 1.239 0 0 0-.3-.04c-.867.04-1.6.6-2.2 1.68-.573 1.04-.793 2.087-.66 3.14.12 1.053.587 1.64 1.4 1.76.947.133 2.213-.413 3.8-1.64l.38.44c.267.293.527.593.78.9l.38.44c-.52.387-.98.7-1.38.94-.387.24-.787.433-1.2.58-.413.16-.82.233-1.22.22-.387 0-.787-.08-1.2-.24-1.147-.44-2.227-1.213-3.24-2.32a3.855 3.855 0 0 1-1-2.36 5.177 5.177 0 0 1 .48-2.56 5.424 5.424 0 0 1 1.7-2c.747-.56 1.56-.84 2.44-.84.413 0 1.747.527 4 1.58ZM87.398 36.1l-.22 1.08c-1.293-.293-2.147-.413-2.56-.36-.653.08-1.166.4-1.54.96-.373.547-.507 1.073-.4 1.58.027.12.334.107.92-.04a54.234 54.234 0 0 1 1.92-.44c.694-.16 1.14-.187 1.34-.08.92.48 1.54 1.113 1.86 1.9.32.787.353 1.54.1 2.26-.24.707-.74 1.32-1.5 1.84s-1.673.78-2.74.78c-.88 0-1.7-.24-2.46-.72-.746-.493-1.626-1.227-2.64-2.2l.36-.68c.907.68 1.867 1.14 2.88 1.38 1.013.227 1.953.133 2.82-.28.88-.413 1.467-1.173 1.76-2.28.013-.053-.047-.073-.18-.06-.146.013-.513.1-1.1.26-1.853.493-3.033.64-3.54.44l-.18-.1c-.733-.56-1.326-1.173-1.78-1.84-.333-.453-.473-.933-.42-1.44.067-.507.24-.967.52-1.38.28-.427.7-.773 1.26-1.04.56-.28 1.174-.42 1.84-.42.2 0 .48.04.84.12.373.08.893.22 1.56.42.68.187 1.107.3 1.28.34Z" fill="#000"/>
</svg>
